<svg height="416pt" viewBox="-10 0 416 416.42667" width="416pt" xmlns="http://www.w3.org/2000/svg"><g fill="#0e65e5"><path d="m20.691406 341.332031h368.640625v34.132813h-368.640625zm0 0"/><path d="m389.332031 382.292969h-368.640625c-3.769531 0-6.824218-3.054688-6.824218-6.828125v-34.132813c0-3.769531 3.054687-6.824219 6.824218-6.824219h368.640625c3.769531 0 6.828125 3.054688 6.828125 6.824219v34.132813c0 3.773437-3.058594 6.828125-6.828125 6.828125zm-361.8125-13.652344h354.988281v-20.480469h-354.988281zm0 0"/><path d="m170.878906 375.464844c0 18.855468 15.28125 34.136718 34.132813 34.136718 18.851562 0 34.136719-15.28125 34.136719-34.136718zm0 0"/><path d="m205.011719 416.425781c-22.585938 0-40.957031-18.375-40.957031-40.960937 0-3.769532 3.054687-6.824219 6.824218-6.824219h68.269532c3.769531 0 6.824218 3.054687 6.824218 6.824219 0 22.585937-18.375 40.960937-40.960937 40.960937zm-26.441407-34.132812c3.039063 11.765625 13.742188 20.480469 26.441407 20.480469s23.40625-8.714844 26.445312-20.480469zm0 0"/><path d="m355.199219 341.332031h-300.371094l.039063-.285156c4.519531-31.542969 6.785156-97.5 6.785156-129.363281v-.058594c0-79.175781 64.183594-143.359375 143.359375-143.359375s143.363281 64.183594 143.363281 143.359375c0 30.878906 2.128906 95.855469 6.371094 126.441406zm0 0"/><path d="m355.199219 348.160156h-300.371094c-1.976563 0-3.855469-.855468-5.152344-2.347656-1.296875-1.488281-1.882812-3.464844-1.609375-5.421875 4.367188-30.496094 6.761719-95.390625 6.761719-128.707031 0-82.871094 67.371094-150.242188 150.183594-150.242188s150.1875 67.371094 150.1875 150.183594c0 32.710938 2.246093 96.226562 6.308593 125.503906l.457032 3.265625c.269531 1.953125-.320313 3.933594-1.617188 5.421875-1.292968 1.492188-3.175781 2.34375-5.148437 2.34375zm-292.605469-13.652344h284.8125c-3.777344-31.449218-5.859375-91.359374-5.859375-122.882812 0-75.28125-61.25-136.53125-136.535156-136.53125-75.28125 0-136.53125 61.25-136.53125 136.53125 0 26.820312-1.742188 87.363281-5.886719 122.882812zm0 0"/></g><path d="m7.039062 341.332031h368.640626v34.132813h-368.640626zm0 0" fill="#2a8ee6"/><path d="m375.679688 382.292969h-368.640626c-3.769531 0-6.824218-3.054688-6.824218-6.828125v-34.132813c0-3.769531 3.054687-6.824219 6.824218-6.824219h368.640626c3.769531 0 6.828124 3.054688 6.828124 6.824219v34.132813c0 3.773437-3.058593 6.828125-6.828124 6.828125zm-361.8125-13.652344h354.984374v-20.480469h-354.984374zm0 0" fill="#0e65e5"/><path d="m157.226562 375.464844c0 18.855468 15.28125 34.136718 34.132813 34.136718s34.132813-15.28125 34.132813-34.136718zm0 0" fill="#94c1ff"/><path d="m191.359375 416.425781c-22.585937 0-40.960937-18.375-40.960937-40.960937 0-3.769532 3.058593-6.824219 6.828124-6.824219h68.265626c3.769531 0 6.828124 3.054687 6.828124 6.824219 0 22.585937-18.375 40.960937-40.960937 40.960937zm-26.441406-34.132812c3.039062 11.765625 13.742187 20.480469 26.441406 20.480469s23.402344-8.714844 26.445313-20.480469zm0 0" fill="#0e65e5"/><path d="m341.546875 341.332031h-300.375l.042969-.285156c4.515625-31.542969 6.785156-97.5 6.785156-129.363281v-.058594c0-79.175781 64.183594-143.359375 143.359375-143.359375s143.359375 64.183594 143.359375 143.359375c0 30.878906 2.132812 95.855469 6.375 126.441406zm0 0" fill="#94c1ff"/><path d="m341.546875 348.160156h-300.375c-1.976563 0-3.851563-.855468-5.148437-2.347656-1.296876-1.488281-1.886719-3.464844-1.609376-5.421875 4.367188-30.496094 6.757813-95.390625 6.757813-128.707031 0-82.871094 67.375-150.242188 150.1875-150.242188s150.1875 67.371094 150.1875 150.183594c0 32.710938 2.246094 96.226562 6.308594 125.503906l.453125 3.265625c.269531 1.953125-.320313 3.933594-1.613282 5.421875-1.296874 1.492188-3.175781 2.34375-5.148437 2.34375zm-292.605469-13.652344h284.8125c-3.78125-31.449218-5.859375-91.359374-5.859375-122.882812 0-75.28125-61.25-136.53125-136.535156-136.53125-75.28125 0-136.53125 61.25-136.53125 136.53125 0 26.820312-1.742187 87.363281-5.886719 122.882812zm0 0" fill="#0e65e5"/><path d="m191.359375 75.09375c-3.769531 0-6.824219-3.058594-6.824219-6.828125v-20.480469c0-3.769531 3.054688-6.824218 6.824219-6.824218s6.828125 3.054687 6.828125 6.824218v20.480469c0 3.769531-3.058594 6.828125-6.828125 6.828125zm0 0" fill="#0e65e5"/><path d="m191.359375 54.613281c-15.054687 0-27.304687-12.25-27.304687-27.304687 0-15.058594 12.25-27.308594 27.304687-27.308594 15.058594 0 27.308594 12.25 27.308594 27.308594 0 15.054687-12.25 27.304687-27.308594 27.304687zm0-40.960937c-7.527344 0-13.652344 6.125-13.652344 13.65625 0 7.527344 6.125 13.652344 13.652344 13.652344 7.53125 0 13.652344-6.125 13.652344-13.652344 0-7.53125-6.121094-13.65625-13.652344-13.65625zm0 0" fill="#0e65e5"/><path d="m84.445312 173.234375c-.886718 0-1.792968-.179687-2.660156-.542969-3.472656-1.46875-5.09375-5.476562-3.625-8.949218 12.359375-29.183594 36.1875-52.996094 65.367188-65.335938 3.472656-1.472656 7.476562.15625 8.945312 3.628906s-.15625 7.480469-3.625 8.945313c-25.945312 10.972656-47.125 32.144531-58.113281 58.085937-1.105469 2.605469-3.632813 4.167969-6.289063 4.167969zm0 0" fill="#fff"/><path d="m314.238281 177.492188c-3.769531 0-6.824219-3.054688-6.824219-6.824219v-27.308594c0-3.769531 3.054688-6.824219 6.824219-6.824219 3.773438 0 6.828125 3.054688 6.828125 6.824219v27.308594c0 3.769531-3.054687 6.824219-6.828125 6.824219zm0 0" fill="#fff"/><path d="m327.894531 163.839844h-27.308593c-3.769532 0-6.824219-3.054688-6.824219-6.828125 0-3.769531 3.054687-6.824219 6.824219-6.824219h27.308593c3.769531 0 6.824219 3.054688 6.824219 6.824219 0 3.773437-3.054688 6.828125-6.824219 6.828125zm0 0" fill="#fff"/></svg>